# xmcd
#
# Track frame offsets:
#	150
#	13422
#	26917
#	41729
#	54029
#	68212
#	80579
#	92952
#	109194
#	124568
#	144658
#	159358
#	173759
#
# Disc length: 2462 seconds
#
# Revision: 1
# Processed by: cddbd v1.4PL0 Copyright (c) Steve Scherf et al.
# Submitted via: audiograbber 1.81.02
#
DISCID=ad099c0d
DTITLE=Claude Francois - For ever cd 2
DYEAR=1900
DGENRE=Blues
TTITLE0=La musique américaine
TTITLE1=Une fille suffit
TTITLE2=La plus belle fille du monde
TTITLE3=Tu est tout pour moi
TTITLE4=Toi et moi contre le monde entier
TTITLE5=Il ne me reste qu'à partir
TTITLE6=Un petit peu d'amour
TTITLE7=Joue quelque chose de simple
TTITLE8=Le chanteur malheureux
TTITLE9=Le spectacle est terminé
TTITLE10=Je viens diner ce soir
TTITLE11=A part ca la vie est belle
TTITLE12=Six jours sur la route(six days on the road)
EXTD=
EXTT0=
EXTT1=
EXTT2=
EXTT3=
EXTT4=
EXTT5=
EXTT6=
EXTT7=
EXTT8=
EXTT9=
EXTT10=
EXTT11=
EXTT12=
PLAYORDER=
